<svg width="16" height="16" viewBox="0 0 16 16" fill="none" xmlns="http://www.w3.org/2000/svg">
<path d="M11.333 2.00008H13.9997C14.1765 2.00008 14.3461 2.07032 14.4711 2.19534C14.5961 2.32037 14.6663 2.48994 14.6663 2.66675V13.3334C14.6663 13.5102 14.5961 13.6798 14.4711 13.8048C14.3461 13.9298 14.1765 14.0001 13.9997 14.0001H1.99967C1.82286 14.0001 1.65329 13.9298 1.52827 13.8048C1.40325 13.6798 1.33301 13.5102 1.33301 13.3334V2.66675C1.33301 2.48994 1.40325 2.32037 1.52827 2.19534C1.65329 2.07032 1.82286 2.00008 1.99967 2.00008H4.66634V0.666748H5.99967V2.00008H9.99968V0.666748H11.333V2.00008ZM13.333 7.33341H2.66634V12.6667H13.333V7.33341ZM9.99968 3.33341H5.99967V4.66675H4.66634V3.33341H2.66634V6.00008H13.333V3.33341H11.333V4.66675H9.99968V3.33341ZM3.99967 8.66675H5.33301V10.0001H3.99967V8.66675ZM7.33301 8.66675H8.66634V10.0001H7.33301V8.66675ZM10.6663 8.66675H11.9997V10.0001H10.6663V8.66675Z" fill="#D8D8D8"/>
</svg>
