<svg width="2127" height="232" viewBox="0 0 2127 232" fill="none" xmlns="http://www.w3.org/2000/svg">
<path d="M64.664 42.416H0.152V4.39999H175.832V42.416H111.32V206H64.664V42.416ZM394.471 4.39999V206H347.815V123.344H256.231V206H209.575V4.39999H256.231V83.888H347.815V4.39999H394.471ZM583.577 162.8H489.977L472.121 206H424.313L514.169 4.39999H560.249L650.393 206H601.433L583.577 162.8ZM568.889 127.376L536.921 50.192L504.953 127.376H568.889ZM864.845 4.39999V206H826.541L726.029 83.6V206H679.949V4.39999H718.541L818.765 126.8V4.39999H864.845ZM994.623 126.8L967.551 155.024V206H921.183V4.39999H967.551V98.576L1056.83 4.39999H1108.67L1025.15 94.256L1113.57 206H1059.13L994.623 126.8ZM1329.98 134.576V206H1283.32V134L1205.28 4.39999H1254.81L1308.67 93.968L1362.52 4.39999H1408.32L1329.98 134.576ZM1525.39 209.456C1504.46 209.456 1485.55 204.944 1468.65 195.92C1451.95 186.896 1438.8 174.512 1429.2 158.768C1419.79 142.832 1415.09 124.976 1415.09 105.2C1415.09 85.424 1419.79 67.664 1429.2 51.92C1438.8 35.984 1451.95 23.504 1468.65 14.48C1485.55 5.456 1504.46 0.943996 1525.39 0.943996C1546.32 0.943996 1565.13 5.456 1581.84 14.48C1598.54 23.504 1611.69 35.984 1621.29 51.92C1630.89 67.664 1635.69 85.424 1635.69 105.2C1635.69 124.976 1630.89 142.832 1621.29 158.768C1611.69 174.512 1598.54 186.896 1581.84 195.92C1565.13 204.944 1546.32 209.456 1525.39 209.456ZM1525.39 169.712C1537.29 169.712 1548.05 167.024 1557.65 161.648C1567.25 156.08 1574.73 148.4 1580.11 138.608C1585.68 128.816 1588.46 117.68 1588.46 105.2C1588.46 92.72 1585.68 81.584 1580.11 71.792C1574.73 62 1567.25 54.416 1557.65 49.04C1548.05 43.472 1537.29 40.688 1525.39 40.688C1513.49 40.688 1502.73 43.472 1493.13 49.04C1483.53 54.416 1475.95 62 1470.38 71.792C1465.01 81.584 1462.32 92.72 1462.32 105.2C1462.32 117.68 1465.01 128.816 1470.38 138.608C1475.95 148.4 1483.53 156.08 1493.13 161.648C1502.73 167.024 1513.49 169.712 1525.39 169.712ZM1768.97 209.456C1740.17 209.456 1717.7 201.488 1701.57 185.552C1685.64 169.616 1677.67 146.864 1677.67 117.296V4.39999H1724.33V115.568C1724.33 151.664 1739.3 169.712 1769.25 169.712C1783.85 169.712 1794.98 165.392 1802.66 156.752C1810.34 147.92 1814.18 134.192 1814.18 115.568V4.39999H1860.26V117.296C1860.26 146.864 1852.2 169.616 1836.07 185.552C1820.14 201.488 1797.77 209.456 1768.97 209.456ZM1906.08 4.39999H1959.65L1950.72 136.016H1915.01L1906.08 4.39999ZM1932.86 208.304C1924.99 208.304 1918.37 205.808 1912.99 200.816C1907.81 195.632 1905.22 189.392 1905.22 182.096C1905.22 174.8 1907.81 168.752 1912.99 163.952C1918.18 158.96 1924.8 156.464 1932.86 156.464C1940.93 156.464 1947.55 158.96 1952.74 163.952C1957.92 168.752 1960.51 174.8 1960.51 182.096C1960.51 189.392 1957.82 195.632 1952.45 200.816C1947.26 205.808 1940.74 208.304 1932.86 208.304Z" fill="#EFEFEF"/>
<path d="M1982.99 206H2126.99V231.92H1982.99V206Z" fill="white"/>
</svg>
