<svg width="2686" height="232" viewBox="0 0 2686 232" fill="none" xmlns="http://www.w3.org/2000/svg">
<path d="M187.84 163.664H155.008V206H109.504V163.664H0.928V132.272L95.968 4.39999H144.928L56.8 125.648H110.944V87.92H155.008V125.648H187.84V163.664ZM296.835 209.456C280.131 209.456 265.251 205.328 252.195 197.072C239.139 188.816 228.867 176.912 221.379 161.36C214.083 145.616 210.434 126.896 210.434 105.2C210.434 83.504 214.083 64.88 221.379 49.328C228.867 33.584 239.139 21.584 252.195 13.328C265.251 5.07199 280.131 0.943996 296.835 0.943996C313.539 0.943996 328.419 5.07199 341.475 13.328C354.531 21.584 364.707 33.584 372.003 49.328C379.491 64.88 383.235 83.504 383.235 105.2C383.235 126.896 379.491 145.616 372.003 161.36C364.707 176.912 354.531 188.816 341.475 197.072C328.419 205.328 313.539 209.456 296.835 209.456ZM296.835 170C309.123 170 318.723 164.72 325.635 154.16C332.739 143.6 336.291 127.28 336.291 105.2C336.291 83.12 332.739 66.8 325.635 56.24C318.723 45.68 309.123 40.4 296.835 40.4C284.739 40.4 275.139 45.68 268.035 56.24C261.123 66.8 257.667 83.12 257.667 105.2C257.667 127.28 261.123 143.6 268.035 154.16C275.139 164.72 284.739 170 296.835 170ZM599.151 163.664H566.319V206H520.815V163.664H412.239V132.272L507.279 4.39999H556.239L468.111 125.648H522.255V87.92H566.319V125.648H599.151V163.664ZM1076.96 163.664H1044.13V206H998.625V163.664H890.049V132.272L985.089 4.39999H1034.05L945.921 125.648H1000.07V87.92H1044.13V125.648H1076.96V163.664ZM1185.96 209.456C1169.25 209.456 1154.37 205.328 1141.32 197.072C1128.26 188.816 1117.99 176.912 1110.5 161.36C1103.2 145.616 1099.56 126.896 1099.56 105.2C1099.56 83.504 1103.2 64.88 1110.5 49.328C1117.99 33.584 1128.26 21.584 1141.32 13.328C1154.37 5.07199 1169.25 0.943996 1185.96 0.943996C1202.66 0.943996 1217.54 5.07199 1230.6 13.328C1243.65 21.584 1253.83 33.584 1261.12 49.328C1268.61 64.88 1272.36 83.504 1272.36 105.2C1272.36 126.896 1268.61 145.616 1261.12 161.36C1253.83 176.912 1243.65 188.816 1230.6 197.072C1217.54 205.328 1202.66 209.456 1185.96 209.456ZM1185.96 170C1198.24 170 1207.84 164.72 1214.76 154.16C1221.86 143.6 1225.41 127.28 1225.41 105.2C1225.41 83.12 1221.86 66.8 1214.76 56.24C1207.84 45.68 1198.24 40.4 1185.96 40.4C1173.86 40.4 1164.26 45.68 1157.16 56.24C1150.24 66.8 1146.79 83.12 1146.79 105.2C1146.79 127.28 1150.24 143.6 1157.16 154.16C1164.26 164.72 1173.86 170 1185.96 170ZM1488.27 163.664H1455.44V206H1409.94V163.664H1301.36V132.272L1396.4 4.39999H1445.36L1357.23 125.648H1411.38V87.92H1455.44V125.648H1488.27V163.664ZM1966.08 163.664H1933.25V206H1887.75V163.664H1779.17V132.272L1874.21 4.39999H1923.17L1835.04 125.648H1889.19V87.92H1933.25V125.648H1966.08V163.664ZM2075.08 209.456C2058.37 209.456 2043.49 205.328 2030.44 197.072C2017.38 188.816 2007.11 176.912 1999.62 161.36C1992.32 145.616 1988.68 126.896 1988.68 105.2C1988.68 83.504 1992.32 64.88 1999.62 49.328C2007.11 33.584 2017.38 21.584 2030.44 13.328C2043.49 5.07199 2058.37 0.943996 2075.08 0.943996C2091.78 0.943996 2106.66 5.07199 2119.72 13.328C2132.77 21.584 2142.95 33.584 2150.24 49.328C2157.73 64.88 2161.48 83.504 2161.48 105.2C2161.48 126.896 2157.73 145.616 2150.24 161.36C2142.95 176.912 2132.77 188.816 2119.72 197.072C2106.66 205.328 2091.78 209.456 2075.08 209.456ZM2075.08 170C2087.36 170 2096.96 164.72 2103.88 154.16C2110.98 143.6 2114.53 127.28 2114.53 105.2C2114.53 83.12 2110.98 66.8 2103.88 56.24C2096.96 45.68 2087.36 40.4 2075.08 40.4C2062.98 40.4 2053.38 45.68 2046.28 56.24C2039.36 66.8 2035.91 83.12 2035.91 105.2C2035.91 127.28 2039.36 143.6 2046.28 154.16C2053.38 164.72 2062.98 170 2075.08 170ZM2377.39 163.664H2344.56V206H2299.06V163.664H2190.48V132.272L2285.52 4.39999H2334.48L2246.35 125.648H2300.5V87.92H2344.56V125.648H2377.39V163.664Z" fill="#EFEFEF"/>
<path d="M2388.76 206H2532.76V231.92H2388.76V206ZM2541.4 206H2685.4V231.92H2541.4V206Z" fill="white"/>
</svg>
