<svg width="5491" height="232" viewBox="0 0 5491 232" fill="none" xmlns="http://www.w3.org/2000/svg">
<path d="M82.144 209.456C66.208 209.456 50.752 207.344 35.776 203.12C20.992 198.704 9.088 193.04 0.0640002 186.128L15.904 150.992C24.544 157.328 34.816 162.416 46.72 166.256C58.624 170.096 70.528 172.016 82.432 172.016C95.68 172.016 105.472 170.096 111.808 166.256C118.144 162.224 121.312 156.944 121.312 150.416C121.312 145.616 119.392 141.68 115.552 138.608C111.904 135.344 107.104 132.752 101.152 130.832C95.392 128.912 87.52 126.8 77.536 124.496C62.176 120.848 49.6 117.2 39.808 113.552C30.016 109.904 21.568 104.048 14.464 95.984C7.552 87.92 4.096 77.168 4.096 63.728C4.096 52.016 7.264 41.456 13.6 32.048C19.936 22.448 29.44 14.864 42.112 9.29599C54.976 3.72799 70.624 0.943996 89.056 0.943996C101.92 0.943996 114.496 2.47999 126.784 5.55199C139.072 8.62399 149.824 13.04 159.04 18.8L144.64 54.224C126.016 43.664 107.392 38.384 88.768 38.384C75.712 38.384 66.016 40.496 59.68 44.72C53.536 48.944 50.464 54.512 50.464 61.424C50.464 68.336 54.016 73.52 61.12 76.976C68.416 80.24 79.456 83.504 94.24 86.768C109.6 90.416 122.176 94.064 131.968 97.712C141.76 101.36 150.112 107.12 157.024 114.992C164.128 122.864 167.68 133.52 167.68 146.96C167.68 158.48 164.416 169.04 157.888 178.64C151.552 188.048 141.952 195.536 129.088 201.104C116.224 206.672 100.576 209.456 82.144 209.456ZM512.904 4.39999L446.952 206H396.84L352.488 69.488L306.696 206H256.872L190.632 4.39999H239.016L284.52 146.096L332.04 4.39999H375.24L421.32 147.248L468.264 4.39999H512.904ZM703.686 168.56V206H547.59V4.39999H699.942V41.84H593.958V85.616H687.558V121.904H593.958V168.56H703.686ZM905.545 168.56V206H749.449V4.39999H901.801V41.84H795.817V85.616H889.417V121.904H795.817V168.56H905.545ZM993.068 42.416H928.556V4.39999H1104.24V42.416H1039.72V206H993.068V42.416ZM1274.84 41.84V95.12H1368.15V132.56H1274.84V206H1228.18V4.39999H1380.53V41.84H1274.84ZM1576.85 168.56V206H1420.76V4.39999H1573.11V41.84H1467.13V85.616H1560.73V121.904H1467.13V168.56H1576.85ZM1778.71 168.56V206H1622.62V4.39999H1774.97V41.84H1668.99V85.616H1762.59V121.904H1668.99V168.56H1778.71ZM1824.48 4.39999H1871.13V167.984H1972.22V206H1824.48V4.39999ZM2006.93 4.39999H2053.59V206H2006.93V4.39999ZM2294.97 4.39999V206H2256.66L2156.15 83.6V206H2110.07V4.39999H2148.66L2248.89 126.8V4.39999H2294.97ZM2487.53 102.032H2530.15V183.824C2519.21 192.08 2506.53 198.416 2492.13 202.832C2477.73 207.248 2463.24 209.456 2448.65 209.456C2427.72 209.456 2408.9 205.04 2392.2 196.208C2375.49 187.184 2362.34 174.8 2352.74 159.056C2343.33 143.12 2338.63 125.168 2338.63 105.2C2338.63 85.232 2343.33 67.376 2352.74 51.632C2362.34 35.696 2375.59 23.312 2392.49 14.48C2409.38 5.456 2428.39 0.943996 2449.51 0.943996C2467.17 0.943996 2483.21 3.91999 2497.61 9.87198C2512.01 15.824 2524.1 24.464 2533.89 35.792L2503.94 63.44C2489.54 48.272 2472.17 40.688 2451.81 40.688C2438.95 40.688 2427.53 43.376 2417.54 48.752C2407.56 54.128 2399.78 61.712 2394.21 71.504C2388.65 81.296 2385.86 92.528 2385.86 105.2C2385.86 117.68 2388.65 128.816 2394.21 138.608C2399.78 148.4 2407.46 156.08 2417.25 161.648C2427.24 167.024 2438.57 169.712 2451.24 169.712C2464.68 169.712 2476.77 166.832 2487.53 161.072V102.032ZM2648.37 209.456C2632.43 209.456 2616.98 207.344 2602 203.12C2587.22 198.704 2575.31 193.04 2566.29 186.128L2582.13 150.992C2590.77 157.328 2601.04 162.416 2612.95 166.256C2624.85 170.096 2636.75 172.016 2648.66 172.016C2661.91 172.016 2671.7 170.096 2678.03 166.256C2684.37 162.224 2687.54 156.944 2687.54 150.416C2687.54 145.616 2685.62 141.68 2681.78 138.608C2678.13 135.344 2673.33 132.752 2667.38 130.832C2661.62 128.912 2653.75 126.8 2643.76 124.496C2628.4 120.848 2615.83 117.2 2606.03 113.552C2596.24 109.904 2587.79 104.048 2580.69 95.984C2573.78 87.92 2570.32 77.168 2570.32 63.728C2570.32 52.016 2573.49 41.456 2579.83 32.048C2586.16 22.448 2595.67 14.864 2608.34 9.29599C2621.2 3.72799 2636.85 0.943996 2655.28 0.943996C2668.15 0.943996 2680.72 2.47999 2693.01 5.55199C2705.3 8.62399 2716.05 13.04 2725.27 18.8L2710.87 54.224C2692.24 43.664 2673.62 38.384 2654.99 38.384C2641.94 38.384 2632.24 40.496 2625.91 44.72C2619.76 48.944 2616.69 54.512 2616.69 61.424C2616.69 68.336 2620.24 73.52 2627.35 76.976C2634.64 80.24 2645.68 83.504 2660.47 86.768C2675.83 90.416 2688.4 94.064 2698.19 97.712C2707.99 101.36 2716.34 107.12 2723.25 114.992C2730.35 122.864 2733.91 133.52 2733.91 146.96C2733.91 158.48 2730.64 169.04 2724.11 178.64C2717.78 188.048 2708.18 195.536 2695.31 201.104C2682.45 206.672 2666.8 209.456 2648.37 209.456ZM2864.63 4.39999H2911.29V167.984H3012.37V206H2864.63V4.39999ZM3141.34 209.456C3120.41 209.456 3101.5 204.944 3084.6 195.92C3067.9 186.896 3054.75 174.512 3045.15 158.768C3035.74 142.832 3031.03 124.976 3031.03 105.2C3031.03 85.424 3035.74 67.664 3045.15 51.92C3054.75 35.984 3067.9 23.504 3084.6 14.48C3101.5 5.456 3120.41 0.943996 3141.34 0.943996C3162.27 0.943996 3181.08 5.456 3197.79 14.48C3214.49 23.504 3227.64 35.984 3237.24 51.92C3246.84 67.664 3251.64 85.424 3251.64 105.2C3251.64 124.976 3246.84 142.832 3237.24 158.768C3227.64 174.512 3214.49 186.896 3197.79 195.92C3181.08 204.944 3162.27 209.456 3141.34 209.456ZM3141.34 169.712C3153.24 169.712 3163.99 167.024 3173.59 161.648C3183.19 156.08 3190.68 148.4 3196.06 138.608C3201.63 128.816 3204.41 117.68 3204.41 105.2C3204.41 92.72 3201.63 81.584 3196.06 71.792C3190.68 62 3183.19 54.416 3173.59 49.04C3163.99 43.472 3153.24 40.688 3141.34 40.688C3129.43 40.688 3118.68 43.472 3109.08 49.04C3099.48 54.416 3091.9 62 3086.33 71.792C3080.95 81.584 3078.27 92.72 3078.27 105.2C3078.27 117.68 3080.95 128.816 3086.33 138.608C3091.9 148.4 3099.48 156.08 3109.08 161.648C3118.68 167.024 3129.43 169.712 3141.34 169.712ZM3482.42 4.39999L3395.16 206H3349.08L3262.1 4.39999H3312.5L3373.84 148.4L3436.05 4.39999H3482.42ZM3663.99 168.56V206H3507.89V4.39999H3660.24V41.84H3554.26V85.616H3647.86V121.904H3554.26V168.56H3663.99ZM3846.61 41.84V95.12H3939.92V132.56H3846.61V206H3799.95V4.39999H3952.31V41.84H3846.61ZM3992.53 4.39999H4039.19V167.984H4140.28V206H3992.53V4.39999ZM4269.24 209.456C4248.31 209.456 4229.4 204.944 4212.51 195.92C4195.8 186.896 4182.65 174.512 4173.05 158.768C4163.64 142.832 4158.94 124.976 4158.94 105.2C4158.94 85.424 4163.64 67.664 4173.05 51.92C4182.65 35.984 4195.8 23.504 4212.51 14.48C4229.4 5.456 4248.31 0.943996 4269.24 0.943996C4290.17 0.943996 4308.99 5.456 4325.69 14.48C4342.39 23.504 4355.55 35.984 4365.15 51.92C4374.75 67.664 4379.55 85.424 4379.55 105.2C4379.55 124.976 4374.75 142.832 4365.15 158.768C4355.55 174.512 4342.39 186.896 4325.69 195.92C4308.99 204.944 4290.17 209.456 4269.24 209.456ZM4269.24 169.712C4281.15 169.712 4291.9 167.024 4301.5 161.648C4311.1 156.08 4318.59 148.4 4323.96 138.608C4329.53 128.816 4332.31 117.68 4332.31 105.2C4332.31 92.72 4329.53 81.584 4323.96 71.792C4318.59 62 4311.1 54.416 4301.5 49.04C4291.9 43.472 4281.15 40.688 4269.24 40.688C4257.34 40.688 4246.59 43.472 4236.99 49.04C4227.39 54.416 4219.8 62 4214.23 71.792C4208.86 81.584 4206.17 92.72 4206.17 105.2C4206.17 117.68 4208.86 128.816 4214.23 138.608C4219.8 148.4 4227.39 156.08 4236.99 161.648C4246.59 167.024 4257.34 169.712 4269.24 169.712ZM4721.2 4.39999L4655.25 206H4605.14L4560.79 69.488L4515 206H4465.17L4398.93 4.39999H4447.32L4492.82 146.096L4540.34 4.39999H4583.54L4629.62 147.248L4676.56 4.39999H4721.2ZM4911.98 168.56V206H4755.89V4.39999H4908.24V41.84H4802.26V85.616H4895.86V121.904H4802.26V168.56H4911.98ZM5086.2 206L5047.32 149.84H5045.01H5004.4V206H4957.75V4.39999H5045.01C5062.87 4.39999 5078.32 7.37599 5091.38 13.328C5104.63 19.28 5114.8 27.728 5121.91 38.672C5129.01 49.616 5132.56 62.576 5132.56 77.552C5132.56 92.528 5128.92 105.488 5121.62 116.432C5114.52 127.184 5104.34 135.44 5091.09 141.2L5136.31 206H5086.2ZM5085.33 77.552C5085.33 66.224 5081.68 57.584 5074.39 51.632C5067.09 45.488 5056.44 42.416 5042.42 42.416H5004.4V112.688H5042.42C5056.44 112.688 5067.09 109.616 5074.39 103.472C5081.68 97.328 5085.33 88.688 5085.33 77.552ZM5244.41 209.456C5228.47 209.456 5213.02 207.344 5198.04 203.12C5183.26 198.704 5171.35 193.04 5162.33 186.128L5178.17 150.992C5186.81 157.328 5197.08 162.416 5208.99 166.256C5220.89 170.096 5232.79 172.016 5244.7 172.016C5257.95 172.016 5267.74 170.096 5274.07 166.256C5280.41 162.224 5283.58 156.944 5283.58 150.416C5283.58 145.616 5281.66 141.68 5277.82 138.608C5274.17 135.344 5269.37 132.752 5263.42 130.832C5257.66 128.912 5249.79 126.8 5239.8 124.496C5224.44 120.848 5211.87 117.2 5202.07 113.552C5192.28 109.904 5183.83 104.048 5176.73 95.984C5169.82 87.92 5166.36 77.168 5166.36 63.728C5166.36 52.016 5169.53 41.456 5175.87 32.048C5182.2 22.448 5191.71 14.864 5204.38 9.29599C5217.24 3.72799 5232.89 0.943996 5251.32 0.943996C5264.19 0.943996 5276.76 2.47999 5289.05 5.55199C5301.34 8.62399 5312.09 13.04 5321.31 18.8L5306.91 54.224C5288.28 43.664 5269.66 38.384 5251.03 38.384C5237.98 38.384 5228.28 40.496 5221.95 44.72C5215.8 48.944 5212.73 54.512 5212.73 61.424C5212.73 68.336 5216.28 73.52 5223.39 76.976C5230.68 80.24 5241.72 83.504 5256.51 86.768C5271.87 90.416 5284.44 94.064 5294.23 97.712C5304.03 101.36 5312.38 107.12 5319.29 114.992C5326.39 122.864 5329.95 133.52 5329.95 146.96C5329.95 158.48 5326.68 169.04 5320.15 178.64C5313.82 188.048 5304.22 195.536 5291.35 201.104C5278.49 206.672 5262.84 209.456 5244.41 209.456Z" fill="#EFEFEF"/>
<path d="M5346.56 206H5490.56V231.92H5346.56V206Z" fill="white"/>
</svg>
