<svg width="247" height="211" viewBox="0 0 247 211" fill="none" xmlns="http://www.w3.org/2000/svg">
<path d="M152.662 97.1271C152.51 100.151 152.208 102.873 152.057 105.746C146.764 105.746 141.472 105.746 136.18 105.746C136.18 70.9678 136.18 36.1896 136.18 1.10897C136.785 1.10897 137.389 0.957764 138.145 0.957764C143.135 0.957764 148.125 0.957764 153.418 0.957764C153.418 15.6251 153.418 29.99 153.418 44.6574C154.022 44.3549 154.325 44.3549 154.627 44.0525C164.002 33.9215 181.24 33.0142 192.883 40.2723C202.863 46.7743 208.458 55.9981 209.516 67.9436C210.726 82.0061 205.736 93.4981 194.093 101.512C182.903 109.224 167.329 108.921 157.198 101.21C155.686 100 154.325 98.6392 152.662 97.1271ZM172.621 51.3106C161.432 51.3106 152.662 60.232 152.662 71.5727C152.662 82.7622 161.583 91.986 172.47 91.986C183.357 91.986 192.43 82.9134 192.43 71.5727C192.43 60.232 183.811 51.3106 172.621 51.3106Z" fill="#F66182"/>
<path d="M94.8989 99.0927C94.2941 99.5463 93.9917 99.6975 93.8405 99.8488C83.407 110.282 63.7497 110.736 51.5018 100.756C40.9171 92.1371 36.3808 80.6451 37.8929 67.3387C39.5562 53.125 46.9655 42.8427 60.4231 37.248C62.5401 36.3407 64.8082 35.8871 67.2276 35.2822C67.2276 36.1895 67.3788 36.7943 67.3788 37.248C67.3788 42.3891 67.3788 47.5302 67.3788 52.6713C67.3788 53.7298 67.0764 54.3346 66.1691 54.9395C59.2135 59.0221 55.5844 66.5826 56.7941 74.1431C58.0038 82.3084 63.7498 88.3568 71.7639 90.3226C82.1973 92.7419 92.9332 85.1814 94.4453 74.5967C95.8062 65.0705 90.2114 56.6028 82.651 53.7298C82.1973 53.5786 81.4413 52.9738 81.4413 52.5201C81.2901 47.2278 81.4413 41.9354 81.4413 36.3407C86.28 37.5504 90.2114 39.8185 93.9917 43.4475C93.9917 41.4818 93.9917 39.9697 93.9917 38.6088C93.9917 37.3992 94.4453 36.7943 95.8062 36.7943C100.947 36.7943 106.088 36.7943 111.23 36.7943C112.288 36.7943 112.893 37.248 112.893 38.3064C112.893 38.76 112.893 39.0625 112.893 39.5161C112.893 60.9879 112.893 82.6109 112.893 104.083C112.893 106.804 112.893 106.804 110.171 106.804C105.786 106.804 101.401 106.804 97.0159 106.804C95.8062 106.804 95.2014 106.351 95.2014 105.292C95.2014 103.175 95.0501 101.361 94.8989 99.0927Z" fill="#F66182"/>
<path d="M0.695312 53.4275C0.695312 36.492 0.695312 19.7077 0.695312 2.77223C0.695312 0.201661 0.695314 0.20166 3.26588 0.20166C7.95338 0.20166 12.4897 0.20166 17.1772 0.20166C18.8405 0.20166 19.5965 0.655289 19.5965 2.46981C19.5965 36.3408 19.5965 70.363 19.5965 104.234C19.5965 105.897 19.1429 106.653 17.3284 106.653C12.4897 106.502 7.80217 106.502 2.96346 106.653C1.14894 106.653 0.695312 105.897 0.695312 104.234C0.695313 87.2985 0.695312 70.363 0.695312 53.4275Z" fill="#F66182"/>
<path d="M227.66 112.248C224.939 119.204 222.217 125.706 219.798 132.51C217.378 139.163 215.564 146.119 213.296 153.226C214.203 152.923 214.656 152.923 215.11 152.772C223.729 149.143 231.743 144.758 237.943 137.349C239.757 135.081 242.025 133.115 244.142 131.149C244.747 130.544 245.503 130.091 246.713 129.788C246.41 130.393 246.259 131.149 245.957 131.754C243.537 135.837 240.513 139.466 236.733 142.339C230.08 147.631 222.671 151.865 214.808 154.889C213.296 155.494 212.691 156.25 212.237 157.762C209.818 166.381 207.55 175 204.828 183.316C202.711 189.97 199.384 196.321 194.999 201.764C188.195 209.929 179.273 212.349 169.142 210.081C159.314 207.661 152.963 201.159 150.997 191.028C149.787 185.131 150.997 179.687 155.382 175C160.977 168.952 168.084 165.474 175.796 163.357C183.658 161.24 191.824 159.728 199.687 157.913C202.257 157.308 204.828 156.704 207.247 155.948C207.852 155.796 208.608 155.191 208.759 154.738C210.12 150.202 211.33 145.514 212.539 140.978C212.388 140.827 212.237 140.675 212.086 140.524C211.632 140.978 211.481 141.583 210.876 142.036C207.852 144.456 204.979 147.026 201.804 149.294C199.989 150.655 198.175 150.353 196.511 149.143C192.58 146.421 190.16 142.49 189.556 137.802C188.8 130.544 189.858 123.437 193.033 116.784C193.941 114.818 195.453 113.004 196.814 111.341C198.023 109.98 199.687 109.526 201.804 110.282C201.501 110.887 201.199 111.341 200.896 111.794C193.941 121.018 192.277 131.3 194.697 142.339C194.999 144.002 195.906 145.665 196.814 147.177C197.721 148.689 199.384 148.841 200.745 147.782C201.955 146.724 203.316 145.665 204.223 144.304C210.725 135.685 216.471 126.462 221.461 116.935C223.124 114.214 224.636 112.55 227.66 112.248ZM208.154 157.157C202.257 158.518 196.814 159.728 191.37 160.786C183.054 162.45 175.039 164.566 167.177 168.196C156.441 173.185 152.66 186.189 156.441 196.32C161.582 209.778 177.459 213.105 186.834 204.183C189.556 201.613 191.975 198.74 194.243 195.716C197.872 190.726 199.838 184.98 201.501 179.234C203.769 172.127 205.886 164.718 208.154 157.157Z" fill="#333333"/>
<path d="M112.892 139.617C109.263 143.095 105.18 145.514 100.342 146.573C88.3959 149.294 79.4746 139.768 79.777 130.847C80.3818 117.389 90.9665 109.677 102.005 111.189C104.273 111.492 106.692 112.248 107.448 114.819C108.204 117.389 107.146 119.96 105.029 121.321C102.761 122.833 100.19 123.891 97.4685 124.798C94.7468 125.554 91.8738 125.857 89.0008 126.31C87.9423 126.462 86.8839 126.31 85.9766 126.31C85.9766 126.008 85.9766 125.706 85.8254 125.554C87.7911 125.101 89.7568 124.798 91.8738 124.345C94.4443 123.74 97.0149 123.286 99.4343 122.228C101.098 121.472 102.61 120.262 103.971 118.901C105.18 117.691 105.18 116.179 104.424 114.667C103.819 113.155 102.61 112.702 101.098 112.702C95.5028 112.399 88.6984 116.935 85.9766 122.984C83.8597 127.671 83.7084 132.661 85.0693 137.5C87.1863 144.456 93.0835 147.177 99.8879 144.758C103.971 143.246 106.995 140.373 110.17 137.651C112.287 135.837 114.404 134.022 116.521 132.208C116.823 131.905 117.126 131.603 117.277 131.149C119.848 127.52 122.267 123.74 124.989 120.262C126.047 118.901 126.501 117.389 126.35 115.726C126.198 113.911 126.35 111.946 126.652 109.98C126.803 109.224 127.408 108.468 127.862 107.56C130.13 109.375 129.223 111.794 130.281 113.911C131.037 113.306 131.642 112.853 132.247 112.248C135.876 109.375 139.807 107.409 144.495 106.956C149.333 106.351 152.509 108.77 152.811 113.609C152.963 115.726 152.811 118.145 152.358 120.262C152.206 121.169 150.846 121.925 150.09 122.681C149.333 121.774 148.124 120.867 147.973 119.808C147.821 117.843 148.124 115.877 148.426 113.911C149.031 109.375 146.914 107.56 142.68 109.224C137.69 111.038 133.91 114.516 130.735 118.75C130.281 119.355 130.281 120.111 130.13 120.867C129.676 127.369 128.315 133.569 125.291 139.314C123.477 142.792 120.755 145.363 117.277 147.329C114.253 148.992 112.59 148.085 112.438 144.607C112.438 142.944 112.741 141.431 112.892 139.617ZM116.823 145.363C120.906 140.071 123.779 134.173 124.989 127.369C121.208 133.115 118.184 138.861 116.823 145.363Z" fill="#333333"/>
<path d="M53.0133 101.814C54.223 102.268 55.1303 103.327 56.3399 103.931C51.9549 113.458 48.9307 123.286 49.0819 134.325C49.6867 133.417 49.9891 133.115 50.1403 132.661C53.1645 127.369 57.2472 122.984 61.9347 119.355C65.2613 116.784 68.7391 116.935 72.3682 118.599C75.0899 119.808 76.4508 122.077 76.4508 125.101C76.9045 136.593 66.7734 145.06 58.4569 146.421C55.2815 146.875 52.4085 146.27 49.6867 144.304C48.3258 146.119 48.1746 148.538 45.7553 149.748C44.9992 147.177 45.6041 145.06 46.0577 142.792C46.3601 141.431 46.3601 140.222 45.6041 139.012C43.7895 135.081 44.092 130.998 44.6968 126.915C46.0577 118.296 49.2331 109.677 53.0133 101.814ZM55.7351 144.909C57.096 144.607 58.3057 144.456 59.5154 144.002C66.1686 141.734 69.344 136.441 71.3097 130.242C72.0658 127.671 72.0658 124.95 72.217 122.228C72.217 120.564 71.0073 119.657 69.344 119.657C67.0758 119.506 65.1101 120.413 63.4468 121.774C57.5496 126.915 52.5597 132.661 51.0476 140.675C50.7452 142.339 51.1988 143.397 52.5597 144.002C53.3157 144.456 54.5254 144.607 55.7351 144.909Z" fill="#333333"/>
<path d="M164.456 109.073C164.91 111.038 165.363 113.004 165.817 115.121C166.573 114.516 167.48 113.76 168.236 113.155C171.865 110.433 175.797 108.468 180.333 108.014C184.718 107.56 187.44 109.224 188.196 113.609C188.649 116.179 188.347 118.901 187.893 121.472C187.742 122.379 186.533 122.984 185.776 123.74C185.02 122.833 183.811 122.077 183.66 121.169C183.508 119.204 183.811 117.087 184.113 115.121C184.113 114.667 184.264 114.062 184.264 113.609C184.264 110.887 182.299 109.224 179.728 109.98C173.982 111.643 169.748 115.423 166.27 120.111C165.968 120.564 165.968 121.321 165.817 121.925C165.363 128.427 164.002 134.778 160.827 140.524C158.861 144.002 156.291 146.573 152.813 148.387C149.789 149.899 148.276 148.992 147.974 145.665C147.672 141.734 149.184 138.105 151.301 134.929C154.325 130.242 157.5 125.706 160.827 121.169C161.734 119.96 162.037 118.901 162.037 117.54C162.037 115.575 162.037 113.458 162.339 111.492C162.49 110.736 163.095 109.829 163.549 109.073C163.7 108.921 164.002 109.073 164.456 109.073ZM160.373 128.579C156.744 134.173 153.569 139.919 152.359 146.573C156.442 141.28 159.315 135.383 160.373 128.579Z" fill="#333333"/>
<path d="M64.3547 86.9959C67.6813 85.1813 71.0079 83.9717 74.4858 84.2741C76.6027 84.4253 77.8124 85.7862 78.4172 87.7519C79.1733 90.3225 78.8708 92.893 77.9636 95.3124C74.3346 104.687 68.2862 112.097 59.8184 117.54C57.3991 119.204 55.5846 119.506 53.3164 119.052C54.2237 118.447 54.8285 117.994 55.4333 117.54C63.145 111.038 69.647 103.478 73.8809 94.2539C74.4858 92.893 74.637 91.3809 74.9394 90.0201C75.2418 88.508 74.7882 87.1471 73.2761 86.2398C71.9152 85.3326 70.5543 85.7862 69.3446 86.6935C65.7156 88.2055 66.3204 88.6592 64.3547 86.9959Z" fill="#333333"/>
<path d="M68.135 65.6753C67.8326 65.5241 67.6814 65.5241 67.5302 65.5241C66.9254 65.2217 66.7742 64.7681 67.379 64.4656C67.9838 64.012 68.5887 63.5584 69.1935 63.256C69.7983 62.9536 70.4032 62.4999 71.008 62.1975C71.3105 62.0463 71.4617 62.0463 71.7641 62.1975C72.0665 62.4999 72.3689 62.6511 72.8225 62.9536C72.6713 62.4999 72.5201 62.0463 72.5201 61.5927C72.3689 60.6854 72.2177 59.9294 72.3689 59.0221C72.5201 58.2661 72.9738 57.6612 73.5786 57.51C73.881 57.51 74.0322 57.51 74.1834 57.8124C74.1834 57.9636 74.1834 58.2661 73.881 58.4173C73.2762 58.5685 73.125 59.0221 73.125 59.4757C73.125 60.383 73.2762 61.2902 73.5786 62.1975C73.5786 62.3487 73.7298 62.4999 73.7298 62.8023C74.0322 62.3487 74.1834 61.8951 74.3346 61.5927C74.4859 61.4415 74.6371 61.2902 74.7883 61.2902C76.1492 61.2902 77.51 61.2902 78.7197 61.4415C79.0221 61.4415 79.1734 61.5927 79.4758 61.5927C79.7782 61.7439 79.9294 61.8951 79.7782 62.1975C79.627 62.4999 79.4758 62.8024 79.3246 63.1048C79.9294 62.9536 80.5342 63.1048 81.1391 63.256C82.1975 63.7096 82.8024 64.6169 83.256 65.6753C83.8609 67.0362 84.0121 68.3971 84.0121 69.9092C83.8609 72.9334 83.256 75.8064 82.0463 78.6794C81.5927 79.7378 80.9879 80.4939 80.2318 81.4011C79.0221 82.6108 77.51 82.9132 75.8467 82.4596C74.4859 82.006 73.125 81.2499 72.0665 80.1915C70.4032 78.6794 68.7399 77.016 67.5302 75.0503C66.6229 73.6894 66.0181 72.3286 65.8669 70.8165C65.7157 69.9092 65.7157 69.0019 66.0181 68.2459C66.3205 67.3386 66.9254 66.7338 67.6814 66.2802C67.8326 65.8265 67.8326 65.6753 68.135 65.6753ZM70.252 69.3044C70.4032 69.3044 70.4032 69.3044 70.252 69.3044C70.7056 69.0019 71.008 68.6995 71.1592 68.3971C71.7641 67.6411 72.5201 66.7338 73.125 65.8265C73.5786 65.2217 73.7298 65.2217 74.3346 65.5241C75.2419 65.8265 76.1492 66.2802 77.2076 66.5826C77.6613 66.7338 78.1149 66.885 78.7197 67.1874C78.7197 67.0362 78.5685 66.885 78.5685 66.885C77.8125 65.9778 76.9052 64.9193 76.1492 64.012C75.8467 63.7096 75.8467 63.4072 76.3004 63.1048C76.9052 62.8024 77.51 62.4999 78.1149 62.1975C78.2661 62.1975 78.2661 62.0463 78.4173 62.0463H78.2661C77.2076 62.0463 75.9979 62.0463 74.9395 61.8951L74.7883 62.0463C74.6371 62.3487 74.4859 62.8024 74.1834 63.1048C73.881 63.5584 73.7298 63.8608 74.0322 64.3144C74.0322 64.6169 74.0322 64.7681 73.7298 64.9193C73.4274 65.0705 73.2762 64.9193 73.125 64.6169C72.9737 64.4657 72.9738 64.1632 72.8225 64.012C72.8225 63.8608 72.6713 63.8608 72.6713 63.8608C72.2177 63.5584 71.6129 63.256 71.1592 62.9536C71.008 62.8023 70.8568 62.8023 70.8568 62.9536C70.1008 63.4072 69.1935 63.8608 68.4375 64.4656C68.2863 64.6169 68.135 64.6169 67.9838 64.7681C68.135 64.7681 68.135 64.7681 68.2863 64.7681C69.0423 64.7681 69.6471 64.7681 70.4032 64.7681C70.8568 64.7681 71.1592 64.9193 71.008 65.3729C70.8568 65.8265 70.7056 66.4314 70.7056 66.885C70.5544 67.7923 70.4032 68.5483 70.252 69.3044Z" fill="#F66182"/>
</svg>
